<svg width="462" height="104" viewBox="0 0 462 104" fill="none" xmlns="http://www.w3.org/2000/svg">
<g clip-path="url(#clip0_113_147)">
<path d="M50.1648 51.864C50.1648 56.0453 49.2048 58.9467 47.2848 60.568C45.3648 62.1893 42.9968 63 40.1808 63H35.1248V40.952H39.8288C42.9221 40.952 45.4181 41.7307 47.3168 43.288C49.2154 44.8453 50.1648 47.704 50.1648 51.864ZM47.1888 51.864C47.1888 49.4747 46.8581 47.6507 46.1968 46.392C45.5568 45.112 44.7568 44.2693 43.7968 43.864C42.8368 43.4373 41.7381 43.224 40.5008 43.224H37.9088V60.76H40.5328C42.4314 60.76 44.0101 60.1093 45.2688 58.808C46.5488 57.4853 47.1888 55.1707 47.1888 51.864ZM57.0003 55.512C57.0643 57.368 57.5443 58.7653 58.4403 59.704C59.3576 60.6427 60.5096 61.112 61.8963 61.112C62.7283 61.112 63.4856 60.9947 64.1683 60.76C64.8723 60.504 65.6189 60.12 66.4083 59.608L67.6562 61.4C66.8669 62.0187 65.9603 62.4987 64.9363 62.84C63.9336 63.1813 62.9203 63.352 61.8963 63.352C59.4643 63.352 57.5656 62.5627 56.2003 60.984C54.8563 59.384 54.1843 57.2507 54.1843 54.584C54.1843 52.8987 54.4829 51.3947 55.0803 50.072C55.6776 48.728 56.5309 47.6827 57.6403 46.936C58.7496 46.168 60.0403 45.784 61.5123 45.784C63.6456 45.784 65.3203 46.5307 66.5363 48.024C67.7736 49.496 68.3923 51.512 68.3923 54.072C68.3923 54.5627 68.3709 55.0427 68.3283 55.512H57.0003ZM61.5443 47.992C60.2429 47.992 59.1869 48.4613 58.3763 49.4C57.5656 50.3173 57.1069 51.672 57.0003 53.464H65.7683C65.7469 51.6933 65.3629 50.3387 64.6163 49.4C63.8696 48.4613 62.8456 47.992 61.5443 47.992ZM85.1478 45.784C86.1078 45.784 86.8864 46.1253 87.4838 46.808C88.1024 47.4693 88.4118 48.6853 88.4118 50.456V63H85.9478V50.904C85.9478 49.7307 85.8731 48.9413 85.7238 48.536C85.5744 48.1093 85.2118 47.896 84.6358 47.896C83.5478 47.896 82.5664 48.568 81.6918 49.912V63H79.1958V50.904C79.1958 49.7307 79.1211 48.9413 78.9718 48.536C78.8224 48.1093 78.4598 47.896 77.8838 47.896C76.7958 47.896 75.8144 48.568 74.9398 49.912V63H72.4758V46.136H74.5558L74.7478 48.12C75.2598 47.3733 75.7931 46.7973 76.3478 46.392C76.9238 45.9867 77.6064 45.784 78.3958 45.784C79.9744 45.784 80.9878 46.5307 81.4358 48.024C81.9478 47.2987 82.4918 46.744 83.0678 46.36C83.6438 45.976 84.3371 45.784 85.1478 45.784ZM99.6633 45.784C101.989 45.784 103.77 46.5733 105.007 48.152C106.266 49.7093 106.895 51.8427 106.895 54.552C106.895 57.1973 106.255 59.3307 104.975 60.952C103.717 62.552 101.935 63.352 99.6313 63.352C97.3059 63.352 95.5139 62.5733 94.2552 61.016C92.9966 59.4373 92.3673 57.2933 92.3673 54.584C92.3673 51.9173 92.9966 49.784 94.2552 48.184C95.5353 46.584 97.3379 45.784 99.6633 45.784ZM99.6633 47.992C98.1913 47.992 97.0926 48.536 96.3673 49.624C95.6419 50.712 95.2793 52.3653 95.2793 54.584C95.2793 56.8027 95.6313 58.456 96.3353 59.544C97.0606 60.6107 98.1593 61.144 99.6313 61.144C101.103 61.144 102.191 60.6107 102.895 59.544C103.621 58.456 103.983 56.792 103.983 54.552C103.983 52.3333 103.621 50.6907 102.895 49.624C102.191 48.536 101.114 47.992 99.6633 47.992ZM110.819 66.456H126.819V68.824H110.819V66.456ZM132.758 40.952H135.51V60.536H145.59L145.238 63H132.758V40.952ZM152.938 55.512C153.002 57.368 153.482 58.7653 154.378 59.704C155.295 60.6427 156.447 61.112 157.834 61.112C158.666 61.112 159.423 60.9947 160.106 60.76C160.81 60.504 161.556 60.12 162.346 59.608L163.594 61.4C162.804 62.0187 161.898 62.4987 160.874 62.84C159.871 63.1813 158.858 63.352 157.834 63.352C155.402 63.352 153.503 62.5627 152.138 60.984C150.794 59.384 150.122 57.2507 150.122 54.584C150.122 52.8987 150.42 51.3947 151.018 50.072C151.615 48.728 152.468 47.6827 153.578 46.936C154.687 46.168 155.978 45.784 157.45 45.784C159.583 45.784 161.258 46.5307 162.474 48.024C163.711 49.496 164.33 51.512 164.33 54.072C164.33 54.5627 164.308 55.0427 164.266 55.512H152.938ZM157.482 47.992C156.18 47.992 155.124 48.4613 154.314 49.4C153.503 50.3173 153.044 51.672 152.938 53.464H161.706C161.684 51.6933 161.3 50.3387 160.554 49.4C159.807 48.4613 158.783 47.992 157.482 47.992ZM175.741 61.144C177.021 61.144 178.035 60.8987 178.781 60.408C179.528 59.9173 179.901 59.2667 179.901 58.456C179.901 57.9013 179.805 57.4533 179.613 57.112C179.421 56.7493 179.037 56.4293 178.461 56.152C177.885 55.8533 177.011 55.5547 175.837 55.256C173.875 54.7653 172.424 54.1787 171.485 53.496C170.547 52.792 170.077 51.7573 170.077 50.392C170.077 48.984 170.664 47.864 171.837 47.032C173.011 46.2 174.557 45.784 176.477 45.784C178.824 45.784 180.872 46.4027 182.621 47.64L181.405 49.496C180.701 49.0053 179.965 48.632 179.197 48.376C178.429 48.0987 177.544 47.96 176.541 47.96C174.109 47.96 172.893 48.696 172.893 50.168C172.893 50.68 173.021 51.096 173.277 51.416C173.555 51.736 173.992 52.024 174.589 52.28C175.208 52.5147 176.125 52.8027 177.341 53.144C179.176 53.6347 180.541 54.264 181.437 55.032C182.355 55.7787 182.813 56.8773 182.813 58.328C182.813 60.0133 182.131 61.272 180.765 62.104C179.4 62.936 177.725 63.352 175.741 63.352C173.096 63.352 170.899 62.5947 169.149 61.08L170.653 59.32C171.336 59.8747 172.115 60.3227 172.989 60.664C173.864 60.984 174.781 61.144 175.741 61.144ZM194.929 61.144C196.209 61.144 197.222 60.8987 197.969 60.408C198.715 59.9173 199.089 59.2667 199.089 58.456C199.089 57.9013 198.993 57.4533 198.801 57.112C198.609 56.7493 198.225 56.4293 197.649 56.152C197.073 55.8533 196.198 55.5547 195.025 55.256C193.062 54.7653 191.611 54.1787 190.673 53.496C189.734 52.792 189.265 51.7573 189.265 50.392C189.265 48.984 189.851 47.864 191.025 47.032C192.198 46.2 193.745 45.784 195.665 45.784C198.011 45.784 200.059 46.4027 201.809 47.64L200.593 49.496C199.889 49.0053 199.153 48.632 198.385 48.376C197.617 48.0987 196.731 47.96 195.729 47.96C193.297 47.96 192.081 48.696 192.081 50.168C192.081 50.68 192.209 51.096 192.465 51.416C192.742 51.736 193.179 52.024 193.777 52.28C194.395 52.5147 195.313 52.8027 196.529 53.144C198.363 53.6347 199.729 54.264 200.625 55.032C201.542 55.7787 202.001 56.8773 202.001 58.328C202.001 60.0133 201.318 61.272 199.953 62.104C198.587 62.936 196.913 63.352 194.929 63.352C192.283 63.352 190.086 62.5947 188.337 61.08L189.841 59.32C190.523 59.8747 191.302 60.3227 192.177 60.664C193.051 60.984 193.969 61.144 194.929 61.144ZM214.788 45.784C217.114 45.784 218.895 46.5733 220.132 48.152C221.391 49.7093 222.02 51.8427 222.02 54.552C222.02 57.1973 221.38 59.3307 220.1 60.952C218.842 62.552 217.06 63.352 214.756 63.352C212.431 63.352 210.639 62.5733 209.38 61.016C208.122 59.4373 207.492 57.2933 207.492 54.584C207.492 51.9173 208.122 49.784 209.38 48.184C210.66 46.584 212.463 45.784 214.788 45.784ZM214.788 47.992C213.316 47.992 212.218 48.536 211.492 49.624C210.767 50.712 210.404 52.3653 210.404 54.584C210.404 56.8027 210.756 58.456 211.46 59.544C212.186 60.6107 213.284 61.144 214.756 61.144C216.228 61.144 217.316 60.6107 218.02 59.544C218.746 58.456 219.108 56.792 219.108 54.552C219.108 52.3333 218.746 50.6907 218.02 49.624C217.316 48.536 216.239 47.992 214.788 47.992ZM227.544 46.136H229.848L230.072 48.504C230.733 47.6507 231.565 46.9893 232.568 46.52C233.592 46.0293 234.616 45.784 235.64 45.784C238.797 45.784 240.376 47.448 240.376 50.776V63H237.688V52.76C237.688 51.5013 237.613 50.5413 237.464 49.88C237.336 49.2187 237.069 48.728 236.664 48.408C236.258 48.088 235.64 47.928 234.808 47.928C233.89 47.928 233.026 48.2053 232.216 48.76C231.405 49.3147 230.744 49.976 230.232 50.744V63H227.544V46.136Z" fill="white"/>
</g>
<defs>
<clipPath id="clip0_113_147">
<rect width="276" height="58" fill="white" transform="translate(0 23)"/>
</clipPath>
</defs>
</svg>
