<svg width="222" height="54" viewBox="0 0 222 54" fill="none" xmlns="http://www.w3.org/2000/svg">
<g clip-path="url(#clip0_120_218)">
<rect width="222" height="54" fill="#0F0101" fill-opacity="0.93"/>
<path d="M83.1958 15.952H85.9478V35.536H96.0278L95.6758 38H83.1958V15.952ZM107.663 20.784C109.989 20.784 111.77 21.5733 113.007 23.152C114.266 24.7093 114.895 26.8427 114.895 29.552C114.895 32.1973 114.255 34.3307 112.975 35.952C111.717 37.552 109.935 38.352 107.631 38.352C105.306 38.352 103.514 37.5733 102.255 36.016C100.997 34.4373 100.367 32.2933 100.367 29.584C100.367 26.9173 100.997 24.784 102.255 23.184C103.535 21.584 105.338 20.784 107.663 20.784ZM107.663 22.992C106.191 22.992 105.093 23.536 104.367 24.624C103.642 25.712 103.279 27.3653 103.279 29.584C103.279 31.8027 103.631 33.456 104.335 34.544C105.061 35.6107 106.159 36.144 107.631 36.144C109.103 36.144 110.191 35.6107 110.895 34.544C111.621 33.456 111.983 31.792 111.983 29.552C111.983 27.3333 111.621 25.6907 110.895 24.624C110.191 23.536 109.114 22.992 107.663 22.992ZM134.947 21.904C134.307 22.1173 133.613 22.256 132.867 22.32C132.12 22.3627 131.171 22.384 130.019 22.384C131.981 23.28 132.963 24.6987 132.963 26.64C132.963 28.3467 132.397 29.7333 131.267 30.8C130.136 31.8453 128.589 32.368 126.627 32.368C125.624 32.368 124.781 32.2507 124.099 32.016C123.843 32.208 123.629 32.4533 123.459 32.752C123.309 33.0507 123.235 33.3493 123.235 33.648C123.235 34.608 123.981 35.088 125.475 35.088H128.515C129.624 35.088 130.627 35.2907 131.523 35.696C132.44 36.08 133.155 36.624 133.667 37.328C134.2 38.032 134.467 38.8107 134.467 39.664C134.467 41.3067 133.763 42.5653 132.355 43.44C130.968 44.336 128.995 44.784 126.435 44.784C123.832 44.784 121.997 44.3787 120.931 43.568C119.864 42.7573 119.331 41.4667 119.331 39.696H121.763C121.763 40.4 121.891 40.9547 122.147 41.36C122.424 41.7867 122.893 42.096 123.555 42.288C124.237 42.5013 125.197 42.608 126.435 42.608C128.248 42.608 129.581 42.3733 130.435 41.904C131.309 41.4347 131.747 40.7413 131.747 39.824C131.747 39.056 131.395 38.4587 130.691 38.032C129.987 37.6267 129.08 37.424 127.971 37.424H124.963C123.576 37.424 122.52 37.1253 121.795 36.528C121.069 35.9093 120.707 35.1413 120.707 34.224C120.707 33.6907 120.867 33.168 121.187 32.656C121.507 32.1227 121.965 31.664 122.563 31.28C121.603 30.7893 120.888 30.1707 120.419 29.424C119.971 28.656 119.747 27.728 119.747 26.64C119.747 25.5093 120.024 24.5067 120.579 23.632C121.155 22.736 121.944 22.0427 122.947 21.552C123.971 21.04 125.144 20.784 126.467 20.784C128.387 20.784 129.848 20.6773 130.851 20.464C131.853 20.2507 132.952 19.888 134.147 19.376L134.947 21.904ZM126.435 22.768C125.133 22.768 124.152 23.12 123.491 23.824C122.829 24.5067 122.499 25.4453 122.499 26.64C122.499 27.8347 122.829 28.7947 123.491 29.52C124.173 30.224 125.176 30.576 126.499 30.576C127.693 30.576 128.6 30.2347 129.219 29.552C129.859 28.848 130.179 27.8667 130.179 26.608C130.179 24.048 128.931 22.768 126.435 22.768ZM165.226 20.784C167.551 20.784 169.332 21.5733 170.57 23.152C171.828 24.7093 172.458 26.8427 172.458 29.552C172.458 32.1973 171.818 34.3307 170.538 35.952C169.279 37.552 167.498 38.352 165.194 38.352C162.868 38.352 161.076 37.5733 159.818 36.016C158.559 34.4373 157.93 32.2933 157.93 29.584C157.93 26.9173 158.559 24.784 159.818 23.184C161.098 21.584 162.9 20.784 165.226 20.784ZM165.226 22.992C163.754 22.992 162.655 23.536 161.93 24.624C161.204 25.712 160.842 27.3653 160.842 29.584C160.842 31.8027 161.194 33.456 161.898 34.544C162.623 35.6107 163.722 36.144 165.194 36.144C166.666 36.144 167.754 35.6107 168.458 34.544C169.183 33.456 169.546 31.792 169.546 29.552C169.546 27.3333 169.183 25.6907 168.458 24.624C167.754 23.536 166.676 22.992 165.226 22.992ZM180.669 33.104C180.669 34.192 180.893 34.992 181.341 35.504C181.811 35.9947 182.536 36.24 183.517 36.24C184.413 36.24 185.277 35.984 186.109 35.472C186.941 34.96 187.603 34.32 188.093 33.552V21.136H190.781V38H188.477L188.253 35.728C187.592 36.56 186.771 37.2107 185.789 37.68C184.829 38.128 183.848 38.352 182.845 38.352C181.245 38.352 180.029 37.9253 179.197 37.072C178.387 36.2187 177.981 34.992 177.981 33.392V21.136H180.669V33.104ZM210.577 37.136C210.001 37.52 209.297 37.8187 208.465 38.032C207.654 38.2453 206.843 38.352 206.033 38.352C204.262 38.352 202.875 37.8933 201.873 36.976C200.87 36.0373 200.369 34.8107 200.369 33.296V23.248H196.497V21.136H200.369V17.328L203.057 17.008V21.136H208.913L208.561 23.248H203.057V33.264C203.057 34.224 203.313 34.9387 203.825 35.408C204.337 35.8773 205.158 36.112 206.289 36.112C207.441 36.112 208.518 35.8453 209.521 35.312L210.577 37.136Z" fill="#D9D9D9"/>
</g>
<defs>
<clipPath id="clip0_120_218">
<rect width="222" height="54" fill="white"/>
</clipPath>
</defs>
</svg>
